<svg xmlns="http://www.w3.org/2000/svg" xmlns:xlink="http://www.w3.org/1999/xlink" contentStyleType="text/css" height="747.2px" preserveAspectRatio="none" style="width:833px;height:747px;background:#FFFFFF;" version="1.1" viewBox="0 0 833 747" width="833.6px" zoomAndPan="magnify"><defs/><g><!--class User--><g id="elem_User"><rect codeLine="22" fill="#F1F1F1" height="248.4109" id="User" rx="2" ry="2" style="stroke:#181818;stroke-width:0.4000000000000001;" width="174.1109" x="5.6" y="12.8"/><ellipse cx="77.432" cy="25.6" fill="#ADD1B2" rx="8.8" ry="8.8" style="stroke:#181818;stroke-width:0.8000000000000002;"/><path d="M76.5195,26.2375 L76.5195,28.2375 L79.982,28.2375 L79.982,27.5 Q79.982,27.0125 80.1695,26.8 Q80.3695,26.5875 80.6695,26.5875 Q80.9695,26.5875 81.157,26.8 Q81.3445,27.0125 81.3445,27.5 L81.3445,29.6 L74.9445,29.6 Q74.4445,29.6 74.232,29.4125 Q74.032,29.225 74.032,28.9125 Q74.032,28.6125 74.2445,28.425 Q74.457,28.2375 74.9445,28.2375 L75.157,28.2375 L75.157,22.9125 L74.9445,22.9125 Q74.4445,22.9125 74.232,22.725 Q74.032,22.5375 74.032,22.225 Q74.032,21.925 74.232,21.7375 Q74.4445,21.55 74.9445,21.55 L81.0445,21.55 L81.0445,23.625 Q81.0445,24.1125 80.857,24.325 Q80.682,24.525 80.3695,24.525 Q80.0695,24.525 79.882,24.325 Q79.6945,24.1125 79.6945,23.625 L79.6945,22.9125 L76.5195,22.9125 L76.5195,24.875 L77.707,24.875 Q77.707,24.35 77.807,24.2 Q78.0195,23.875 78.3945,23.875 Q78.6945,23.875 78.882,24.0875 Q79.0695,24.2875 79.0695,24.775 L79.0695,26.35 Q79.0695,26.7875 78.9695,26.9375 Q78.757,27.25 78.3945,27.25 Q78.0195,27.25 77.807,26.925 Q77.707,26.775 77.707,26.2375 L76.5195,26.2375 Z " fill="#000000"/><text fill="#000000" font-family="sans-serif" font-size="11.2" lengthAdjust="spacing" textLength="23.6469" x="93.832" y="30.2895">User</text><line style="stroke:#181818;stroke-width:0.4000000000000001;" x1="6.4" x2="178.9109" y1="38.4" y2="38.4"/><rect fill="none" height="4.8" style="stroke:#C82930;stroke-width:0.8000000000000002;" width="4.8" x="12" y="47.9004"/><text fill="#000000" font-family="sans-serif" font-size="11.2" lengthAdjust="spacing" textLength="137.7359" x="21.6" y="53.7898">@JsonIgnore userId : UUID</text><rect fill="none" height="4.8" style="stroke:#C82930;stroke-width:0.8000000000000002;" width="4.8" x="12" y="62.9012"/><text fill="#000000" font-family="sans-serif" font-size="11.2" lengthAdjust="spacing" textLength="62.2453" x="21.6" y="68.7906">email: String</text><rect fill="none" height="4.8" style="stroke:#C82930;stroke-width:0.8000000000000002;" width="4.8" x="12" y="77.902"/><text fill="#000000" font-family="sans-serif" font-size="11.2" lengthAdjust="spacing" textLength="63.4977" x="21.6" y="83.7914">name: String</text><rect fill="none" height="4.8" style="stroke:#C82930;stroke-width:0.8000000000000002;" width="4.8" x="12" y="92.9027"/><text fill="#000000" font-family="sans-serif" font-size="11.2" lengthAdjust="spacing" textLength="106.4602" x="21.6" y="98.7922">phoneNumber: String</text><rect fill="none" height="4.8" style="stroke:#C82930;stroke-width:0.8000000000000002;" width="4.8" x="12" y="107.9035"/><text fill="#000000" font-family="sans-serif" font-size="11.2" lengthAdjust="spacing" textLength="83.4148" x="21.6" y="113.793">nickname: String</text><rect fill="none" height="4.8" style="stroke:#C82930;stroke-width:0.8000000000000002;" width="4.8" x="12" y="122.9043"/><text fill="#000000" font-family="sans-serif" font-size="11.2" lengthAdjust="spacing" textLength="153.3109" x="21.6" y="128.7938">@JsonIgnore password: String</text><rect fill="none" height="4.8" style="stroke:#C82930;stroke-width:0.8000000000000002;" width="4.8" x="12" y="137.9051"/><text fill="#000000" font-family="sans-serif" font-size="11.2" lengthAdjust="spacing" textLength="70.9734" x="21.6" y="143.7945">joinDate: Date</text><rect fill="none" height="4.8" style="stroke:#C82930;stroke-width:0.8000000000000002;" width="4.8" x="12" y="152.9059"/><text fill="#000000" font-family="sans-serif" font-size="11.2" lengthAdjust="spacing" textLength="97.1141" x="21.6" y="158.7953">profileImage: String</text><rect fill="none" height="4.8" style="stroke:#C82930;stroke-width:0.8000000000000002;" width="4.8" x="12" y="167.9066"/><text fill="#000000" font-family="sans-serif" font-size="11.2" lengthAdjust="spacing" textLength="90.8797" x="21.6" y="173.7961">profileText : String</text><rect fill="none" height="4.8" style="stroke:#C82930;stroke-width:0.8000000000000002;" width="4.8" x="12" y="182.9074"/><text fill="#000000" font-family="sans-serif" font-size="11.2" lengthAdjust="spacing" textLength="98.3719" x="21.6" y="188.7969">lastLoginDate: Date</text><rect fill="none" height="4.8" style="stroke:#C82930;stroke-width:0.8000000000000002;" width="4.8" x="12" y="197.9082"/><text fill="#000000" font-family="sans-serif" font-size="11.2" lengthAdjust="spacing" textLength="54.157" x="21.6" y="203.7977">role: String</text><rect fill="none" height="4.8" style="stroke:#C82930;stroke-width:0.8000000000000002;" width="4.8" x="12" y="212.909"/><text fill="#000000" font-family="sans-serif" font-size="11.2" lengthAdjust="spacing" textLength="108.9484" x="21.6" y="218.7984">isBlacklisted: Boolean</text><rect fill="none" height="4.8" style="stroke:#C82930;stroke-width:0.8000000000000002;" width="4.8" x="12" y="227.9098"/><text fill="#000000" font-family="sans-serif" font-size="11.2" lengthAdjust="spacing" textLength="113.9195" x="21.6" y="233.7992">blacklistReason: String</text><rect fill="none" height="4.8" style="stroke:#C82930;stroke-width:0.8000000000000002;" width="4.8" x="12" y="242.9105"/><text fill="#000000" font-family="sans-serif" font-size="11.2" lengthAdjust="spacing" textLength="132.6172" x="21.6" y="248.8">noticeIdList: List&lt;noticeId&gt;</text><line style="stroke:#181818;stroke-width:0.4000000000000001;" x1="6.4" x2="178.9109" y1="254.8109" y2="254.8109"/></g><!--class AdoptionNotice--><g id="elem_AdoptionNotice"><rect codeLine="42" fill="#F1F1F1" height="263.4117" id="AdoptionNotice" rx="2" ry="2" style="stroke:#181818;stroke-width:0.4000000000000001;" width="188.8984" x="208" y="5.6"/><ellipse cx="261.0688" cy="18.4" fill="#ADD1B2" rx="8.8" ry="8.8" style="stroke:#181818;stroke-width:0.8000000000000002;"/><path d="M260.1563,19.0375 L260.1563,21.0375 L263.6188,21.0375 L263.6188,20.3 Q263.6188,19.8125 263.8063,19.6 Q264.0063,19.3875 264.3063,19.3875 Q264.6063,19.3875 264.7938,19.6 Q264.9813,19.8125 264.9813,20.3 L264.9813,22.4 L258.5813,22.4 Q258.0813,22.4 257.8688,22.2125 Q257.6688,22.025 257.6688,21.7125 Q257.6688,21.4125 257.8813,21.225 Q258.0938,21.0375 258.5813,21.0375 L258.7938,21.0375 L258.7938,15.7125 L258.5813,15.7125 Q258.0813,15.7125 257.8688,15.525 Q257.6688,15.3375 257.6688,15.025 Q257.6688,14.725 257.8688,14.5375 Q258.0813,14.35 258.5813,14.35 L264.6813,14.35 L264.6813,16.425 Q264.6813,16.9125 264.4938,17.125 Q264.3188,17.325 264.0063,17.325 Q263.7063,17.325 263.5188,17.125 Q263.3313,16.9125 263.3313,16.425 L263.3313,15.7125 L260.1563,15.7125 L260.1563,17.675 L261.3438,17.675 Q261.3438,17.15 261.4438,17 Q261.6563,16.675 262.0313,16.675 Q262.3313,16.675 262.5188,16.8875 Q262.7063,17.0875 262.7063,17.575 L262.7063,19.15 Q262.7063,19.5875 262.6063,19.7375 Q262.3938,20.05 262.0313,20.05 Q261.6563,20.05 261.4438,19.725 Q261.3438,19.575 261.3438,19.0375 L260.1563,19.0375 Z " fill="#000000"/><text fill="#000000" font-family="sans-serif" font-size="11.2" lengthAdjust="spacing" textLength="75.9609" x="277.4688" y="23.0895">AdoptionNotice</text><line style="stroke:#181818;stroke-width:0.4000000000000001;" x1="208.8" x2="396.0984" y1="31.2" y2="31.2"/><rect fill="none" height="4.8" style="stroke:#C82930;stroke-width:0.8000000000000002;" width="4.8" x="214.4" y="40.7004"/><text fill="#000000" font-family="sans-serif" font-size="11.2" lengthAdjust="spacing" textLength="153.3" x="224" y="46.5898">@JsonIgnore noticeUid : UUID</text><rect fill="none" height="4.8" style="stroke:#C82930;stroke-width:0.8000000000000002;" width="4.8" x="214.4" y="55.7012"/><text fill="#000000" font-family="sans-serif" font-size="11.2" lengthAdjust="spacing" textLength="70.3664" x="224" y="61.5906">noticeId: Long</text><rect fill="none" height="4.8" style="stroke:#C82930;stroke-width:0.8000000000000002;" width="4.8" x="214.4" y="70.702"/><text fill="#000000" font-family="sans-serif" font-size="11.2" lengthAdjust="spacing" textLength="168.0984" x="224" y="76.5914">category: AdoptionCategoryEnum</text><rect fill="none" height="4.8" style="stroke:#C82930;stroke-width:0.8000000000000002;" width="4.8" x="214.4" y="85.7027"/><text fill="#000000" font-family="sans-serif" font-size="11.2" lengthAdjust="spacing" textLength="52.9102" x="224" y="91.5922">title: String</text><rect fill="none" height="4.8" style="stroke:#C82930;stroke-width:0.8000000000000002;" width="4.8" x="214.4" y="100.7035"/><text fill="#000000" font-family="sans-serif" font-size="11.2" lengthAdjust="spacing" textLength="115.7625" x="224" y="106.593">writerNickname : String</text><rect fill="none" height="4.8" style="stroke:#C82930;stroke-width:0.8000000000000002;" width="4.8" x="214.4" y="115.7043"/><text fill="#000000" font-family="sans-serif" font-size="11.2" lengthAdjust="spacing" textLength="73.4563" x="224" y="121.5938">viewCount : int</text><rect fill="none" height="4.8" style="stroke:#C82930;stroke-width:0.8000000000000002;" width="4.8" x="214.4" y="130.7051"/><text fill="#000000" font-family="sans-serif" font-size="11.2" lengthAdjust="spacing" textLength="93.3734" x="224" y="136.5945">animalType: String</text><rect fill="none" height="4.8" style="stroke:#C82930;stroke-width:0.8000000000000002;" width="4.8" x="214.4" y="145.7059"/><text fill="#000000" font-family="sans-serif" font-size="11.2" lengthAdjust="spacing" textLength="110.2063" x="224" y="151.5953">adoptionStatus: String</text><rect fill="none" height="4.8" style="stroke:#C82930;stroke-width:0.8000000000000002;" width="4.8" x="214.4" y="160.7066"/><text fill="#000000" font-family="sans-serif" font-size="11.2" lengthAdjust="spacing" textLength="36.7391" x="224" y="166.5961">age: int</text><rect fill="none" height="4.8" style="stroke:#C82930;stroke-width:0.8000000000000002;" width="4.8" x="214.4" y="175.7074"/><text fill="#000000" font-family="sans-serif" font-size="11.2" lengthAdjust="spacing" textLength="108.3414" x="224" y="181.5969">euthanasiaDate: Date</text><rect fill="none" height="4.8" style="stroke:#C82930;stroke-width:0.8000000000000002;" width="4.8" x="214.4" y="190.7082"/><text fill="#000000" font-family="sans-serif" font-size="11.2" lengthAdjust="spacing" textLength="77.8203" x="224" y="196.5977">createdAt: Date</text><rect fill="none" height="4.8" style="stroke:#C82930;stroke-width:0.8000000000000002;" width="4.8" x="214.4" y="205.709"/><text fill="#000000" font-family="sans-serif" font-size="11.2" lengthAdjust="spacing" textLength="71.5859" x="224" y="211.5984">images: String</text><rect fill="none" height="4.8" style="stroke:#C82930;stroke-width:0.8000000000000002;" width="4.8" x="214.4" y="220.7098"/><text fill="#000000" font-family="sans-serif" font-size="11.2" lengthAdjust="spacing" textLength="89.6438" x="224" y="226.5992">description: String</text><rect fill="none" height="4.8" style="stroke:#C82930;stroke-width:0.8000000000000002;" width="4.8" x="214.4" y="235.7105"/><text fill="#000000" font-family="sans-serif" font-size="11.2" lengthAdjust="spacing" textLength="94.0188" x="224" y="241.6">isDeleted: Boolean</text><rect fill="none" height="4.8" style="stroke:#C82930;stroke-width:0.8000000000000002;" width="4.8" x="214.4" y="250.7113"/><text fill="#000000" font-family="sans-serif" font-size="11.2" lengthAdjust="spacing" textLength="113.9414" x="224" y="256.6008">deletedReason : String</text><line style="stroke:#181818;stroke-width:0.4000000000000001;" x1="208.8" x2="396.0984" y1="262.6117" y2="262.6117"/></g><!--class CommunityPost--><g id="elem_CommunityPost"><rect codeLine="63" fill="#F1F1F1" height="203.4086" id="CommunityPost" rx="2" ry="2" style="stroke:#181818;stroke-width:0.4000000000000001;" width="201.318" x="424.8" y="35.6"/><ellipse cx="482.5363" cy="48.4" fill="#ADD1B2" rx="8.8" ry="8.8" style="stroke:#181818;stroke-width:0.8000000000000002;"/><path d="M481.6238,49.0375 L481.6238,51.0375 L485.0863,51.0375 L485.0863,50.3 Q485.0863,49.8125 485.2738,49.6 Q485.4738,49.3875 485.7738,49.3875 Q486.0738,49.3875 486.2613,49.6 Q486.4488,49.8125 486.4488,50.3 L486.4488,52.4 L480.0488,52.4 Q479.5488,52.4 479.3363,52.2125 Q479.1363,52.025 479.1363,51.7125 Q479.1363,51.4125 479.3488,51.225 Q479.5613,51.0375 480.0488,51.0375 L480.2613,51.0375 L480.2613,45.7125 L480.0488,45.7125 Q479.5488,45.7125 479.3363,45.525 Q479.1363,45.3375 479.1363,45.025 Q479.1363,44.725 479.3363,44.5375 Q479.5488,44.35 480.0488,44.35 L486.1488,44.35 L486.1488,46.425 Q486.1488,46.9125 485.9613,47.125 Q485.7863,47.325 485.4738,47.325 Q485.1738,47.325 484.9863,47.125 Q484.7988,46.9125 484.7988,46.425 L484.7988,45.7125 L481.6238,45.7125 L481.6238,47.675 L482.8113,47.675 Q482.8113,47.15 482.9113,47 Q483.1238,46.675 483.4988,46.675 Q483.7988,46.675 483.9863,46.8875 Q484.1738,47.0875 484.1738,47.575 L484.1738,49.15 Q484.1738,49.5875 484.0738,49.7375 Q483.8613,50.05 483.4988,50.05 Q483.1238,50.05 482.9113,49.725 Q482.8113,49.575 482.8113,49.0375 L481.6238,49.0375 Z " fill="#000000"/><text fill="#000000" font-family="sans-serif" font-size="11.2" lengthAdjust="spacing" textLength="79.0453" x="498.9363" y="53.0895">CommunityPost</text><line style="stroke:#181818;stroke-width:0.4000000000000001;" x1="425.6" x2="625.318" y1="61.2" y2="61.2"/><rect fill="none" height="4.8" style="stroke:#C82930;stroke-width:0.8000000000000002;" width="4.8" x="431.2" y="70.7004"/><text fill="#000000" font-family="sans-serif" font-size="11.2" lengthAdjust="spacing" textLength="144.5828" x="440.8" y="76.5898">@JsonIgnore postUid : UUID</text><rect fill="none" height="4.8" style="stroke:#C82930;stroke-width:0.8000000000000002;" width="4.8" x="431.2" y="85.7012"/><text fill="#000000" font-family="sans-serif" font-size="11.2" lengthAdjust="spacing" textLength="61.6492" x="440.8" y="91.5906">postId: Long</text><rect fill="none" height="4.8" style="stroke:#C82930;stroke-width:0.8000000000000002;" width="4.8" x="431.2" y="100.702"/><text fill="#000000" font-family="sans-serif" font-size="11.2" lengthAdjust="spacing" textLength="180.518" x="440.8" y="106.5914">category: CommunityCategoryEnum</text><rect fill="none" height="4.8" style="stroke:#C82930;stroke-width:0.8000000000000002;" width="4.8" x="431.2" y="115.7027"/><text fill="#000000" font-family="sans-serif" font-size="11.2" lengthAdjust="spacing" textLength="52.9102" x="440.8" y="121.5922">title: String</text><rect fill="none" height="4.8" style="stroke:#C82930;stroke-width:0.8000000000000002;" width="4.8" x="431.2" y="130.7035"/><text fill="#000000" font-family="sans-serif" font-size="11.2" lengthAdjust="spacing" textLength="72.2203" x="440.8" y="136.593">content: String</text><rect fill="none" height="4.8" style="stroke:#C82930;stroke-width:0.8000000000000002;" width="4.8" x="431.2" y="145.7043"/><text fill="#000000" font-family="sans-serif" font-size="11.2" lengthAdjust="spacing" textLength="77.8203" x="440.8" y="151.5938">createdAt: Date</text><rect fill="none" height="4.8" style="stroke:#C82930;stroke-width:0.8000000000000002;" width="4.8" x="431.2" y="160.7051"/><text fill="#000000" font-family="sans-serif" font-size="11.2" lengthAdjust="spacing" textLength="65.9859" x="440.8" y="166.5945">image: String</text><rect fill="none" height="4.8" style="stroke:#C82930;stroke-width:0.8000000000000002;" width="4.8" x="431.2" y="175.7059"/><text fill="#000000" font-family="sans-serif" font-size="11.2" lengthAdjust="spacing" textLength="94.0188" x="440.8" y="181.5953">isDeleted: Boolean</text><rect fill="none" height="4.8" style="stroke:#C82930;stroke-width:0.8000000000000002;" width="4.8" x="431.2" y="190.7066"/><text fill="#000000" font-family="sans-serif" font-size="11.2" lengthAdjust="spacing" textLength="107.7125" x="440.8" y="196.5961">deleteReason : String</text><rect fill="none" height="4.8" style="stroke:#C82930;stroke-width:0.8000000000000002;" width="4.8" x="431.2" y="205.7074"/><text fill="#000000" font-family="sans-serif" font-size="11.2" lengthAdjust="spacing" textLength="112.6508" x="440.8" y="211.5969">writerNickname: String</text><rect fill="none" height="4.8" style="stroke:#C82930;stroke-width:0.8000000000000002;" width="4.8" x="431.2" y="220.7082"/><text fill="#000000" font-family="sans-serif" font-size="11.2" lengthAdjust="spacing" textLength="70.3445" x="440.8" y="226.5977">viewCount: int</text><line style="stroke:#181818;stroke-width:0.4000000000000001;" x1="425.6" x2="625.318" y1="232.6086" y2="232.6086"/></g><!--class Admin--><g id="elem_Admin"><rect codeLine="80" fill="#F1F1F1" height="188.4078" id="Admin" rx="2" ry="2" style="stroke:#181818;stroke-width:0.4000000000000001;" width="174.1109" x="654.4" y="42.8"/><ellipse cx="722.1824" cy="55.6" fill="#ADD1B2" rx="8.8" ry="8.8" style="stroke:#181818;stroke-width:0.8000000000000002;"/><path d="M721.2699,56.2375 L721.2699,58.2375 L724.7324,58.2375 L724.7324,57.5 Q724.7324,57.0125 724.9199,56.8 Q725.1199,56.5875 725.4199,56.5875 Q725.7199,56.5875 725.9074,56.8 Q726.0949,57.0125 726.0949,57.5 L726.0949,59.6 L719.6949,59.6 Q719.1949,59.6 718.9824,59.4125 Q718.7824,59.225 718.7824,58.9125 Q718.7824,58.6125 718.9949,58.425 Q719.2074,58.2375 719.6949,58.2375 L719.9074,58.2375 L719.9074,52.9125 L719.6949,52.9125 Q719.1949,52.9125 718.9824,52.725 Q718.7824,52.5375 718.7824,52.225 Q718.7824,51.925 718.9824,51.7375 Q719.1949,51.55 719.6949,51.55 L725.7949,51.55 L725.7949,53.625 Q725.7949,54.1125 725.6074,54.325 Q725.4324,54.525 725.1199,54.525 Q724.8199,54.525 724.6324,54.325 Q724.4449,54.1125 724.4449,53.625 L724.4449,52.9125 L721.2699,52.9125 L721.2699,54.875 L722.4574,54.875 Q722.4574,54.35 722.5574,54.2 Q722.7699,53.875 723.1449,53.875 Q723.4449,53.875 723.6324,54.0875 Q723.8199,54.2875 723.8199,54.775 L723.8199,56.35 Q723.8199,56.7875 723.7199,56.9375 Q723.5074,57.25 723.1449,57.25 Q722.7699,57.25 722.5574,56.925 Q722.4574,56.775 722.4574,56.2375 L721.2699,56.2375 Z " fill="#000000"/><text fill="#000000" font-family="sans-serif" font-size="11.2" lengthAdjust="spacing" textLength="31.7461" x="738.5824" y="60.2895">Admin</text><line style="stroke:#181818;stroke-width:0.4000000000000001;" x1="655.2" x2="827.7109" y1="68.4" y2="68.4"/><rect fill="none" height="4.8" style="stroke:#C82930;stroke-width:0.8000000000000002;" width="4.8" x="660.8" y="77.9004"/><text fill="#000000" font-family="sans-serif" font-size="11.2" lengthAdjust="spacing" textLength="146.4531" x="670.4" y="83.7898">@JsonIgnore adminId : UUID</text><rect fill="none" height="4.8" style="stroke:#C82930;stroke-width:0.8000000000000002;" width="4.8" x="660.8" y="92.9012"/><text fill="#000000" font-family="sans-serif" font-size="11.2" lengthAdjust="spacing" textLength="62.2453" x="670.4" y="98.7906">email: String</text><rect fill="none" height="4.8" style="stroke:#C82930;stroke-width:0.8000000000000002;" width="4.8" x="660.8" y="107.902"/><text fill="#000000" font-family="sans-serif" font-size="11.2" lengthAdjust="spacing" textLength="63.4977" x="670.4" y="113.7914">name: String</text><rect fill="none" height="4.8" style="stroke:#C82930;stroke-width:0.8000000000000002;" width="4.8" x="660.8" y="122.9027"/><text fill="#000000" font-family="sans-serif" font-size="11.2" lengthAdjust="spacing" textLength="106.4602" x="670.4" y="128.7922">phoneNumber: String</text><rect fill="none" height="4.8" style="stroke:#C82930;stroke-width:0.8000000000000002;" width="4.8" x="660.8" y="137.9035"/><text fill="#000000" font-family="sans-serif" font-size="11.2" lengthAdjust="spacing" textLength="83.4148" x="670.4" y="143.793">nickname: String</text><rect fill="none" height="4.8" style="stroke:#C82930;stroke-width:0.8000000000000002;" width="4.8" x="660.8" y="152.9043"/><text fill="#000000" font-family="sans-serif" font-size="11.2" lengthAdjust="spacing" textLength="153.3109" x="670.4" y="158.7938">@JsonIgnore password: String</text><rect fill="none" height="4.8" style="stroke:#C82930;stroke-width:0.8000000000000002;" width="4.8" x="660.8" y="167.9051"/><text fill="#000000" font-family="sans-serif" font-size="11.2" lengthAdjust="spacing" textLength="70.9734" x="670.4" y="173.7945">joinDate: Date</text><rect fill="none" height="4.8" style="stroke:#C82930;stroke-width:0.8000000000000002;" width="4.8" x="660.8" y="182.9059"/><text fill="#000000" font-family="sans-serif" font-size="11.2" lengthAdjust="spacing" textLength="97.1141" x="670.4" y="188.7953">profileImage: String</text><rect fill="none" height="4.8" style="stroke:#C82930;stroke-width:0.8000000000000002;" width="4.8" x="660.8" y="197.9066"/><text fill="#000000" font-family="sans-serif" font-size="11.2" lengthAdjust="spacing" textLength="98.3719" x="670.4" y="203.7961">lastLoginDate: Date</text><rect fill="none" height="4.8" style="stroke:#C82930;stroke-width:0.8000000000000002;" width="4.8" x="660.8" y="212.9074"/><text fill="#000000" font-family="sans-serif" font-size="11.2" lengthAdjust="spacing" textLength="132.6172" x="670.4" y="218.7969">noticeIdList: List&lt;noticeId&gt;</text><line style="stroke:#181818;stroke-width:0.4000000000000001;" x1="655.2" x2="827.7109" y1="224.8078" y2="224.8078"/></g><!--class Blacklist--><g id="elem_Blacklist"><rect codeLine="96" fill="#F1F1F1" height="83.4023" id="Blacklist" rx="2" ry="2" style="stroke:#181818;stroke-width:0.4000000000000001;" width="167.2695" x="9.2" y="362"/><ellipse cx="68.8969" cy="374.8" fill="#ADD1B2" rx="8.8" ry="8.8" style="stroke:#181818;stroke-width:0.8000000000000002;"/><path d="M67.9844,375.4375 L67.9844,377.4375 L71.4469,377.4375 L71.4469,376.7 Q71.4469,376.2125 71.6344,376 Q71.8344,375.7875 72.1344,375.7875 Q72.4344,375.7875 72.6219,376 Q72.8094,376.2125 72.8094,376.7 L72.8094,378.8 L66.4094,378.8 Q65.9094,378.8 65.6969,378.6125 Q65.4969,378.425 65.4969,378.1125 Q65.4969,377.8125 65.7094,377.625 Q65.9219,377.4375 66.4094,377.4375 L66.6219,377.4375 L66.6219,372.1125 L66.4094,372.1125 Q65.9094,372.1125 65.6969,371.925 Q65.4969,371.7375 65.4969,371.425 Q65.4969,371.125 65.6969,370.9375 Q65.9094,370.75 66.4094,370.75 L72.5094,370.75 L72.5094,372.825 Q72.5094,373.3125 72.3219,373.525 Q72.1469,373.725 71.8344,373.725 Q71.5344,373.725 71.3469,373.525 Q71.1594,373.3125 71.1594,372.825 L71.1594,372.1125 L67.9844,372.1125 L67.9844,374.075 L69.1719,374.075 Q69.1719,373.55 69.2719,373.4 Q69.4844,373.075 69.8594,373.075 Q70.1594,373.075 70.3469,373.2875 Q70.5344,373.4875 70.5344,373.975 L70.5344,375.55 Q70.5344,375.9875 70.4344,376.1375 Q70.2219,376.45 69.8594,376.45 Q69.4844,376.45 69.2719,376.125 Q69.1719,375.975 69.1719,375.4375 L67.9844,375.4375 Z " fill="#000000"/><text fill="#000000" font-family="sans-serif" font-size="11.2" lengthAdjust="spacing" textLength="41.0758" x="85.2969" y="379.4895">Blacklist</text><line style="stroke:#181818;stroke-width:0.4000000000000001;" x1="10" x2="175.6695" y1="387.6" y2="387.6"/><rect fill="none" height="4.8" style="stroke:#C82930;stroke-width:0.8000000000000002;" width="4.8" x="15.6" y="397.1004"/><text fill="#000000" font-family="sans-serif" font-size="11.2" lengthAdjust="spacing" textLength="146.4695" x="25.2" y="402.9898">@JsonIgnore blacklistId: uuid</text><rect fill="none" height="4.8" style="stroke:#C82930;stroke-width:0.8000000000000002;" width="4.8" x="15.6" y="412.1012"/><text fill="#000000" font-family="sans-serif" font-size="11.2" lengthAdjust="spacing" textLength="87.768" x="25.2" y="417.9906">users: List&lt;User&gt;</text><rect fill="none" height="4.8" style="stroke:#C82930;stroke-width:0.8000000000000002;" width="4.8" x="15.6" y="427.102"/><text fill="#000000" font-family="sans-serif" font-size="11.2" lengthAdjust="spacing" textLength="84.6836" x="25.2" y="432.9914">addedDate: Date</text><line style="stroke:#181818;stroke-width:0.4000000000000001;" x1="10" x2="175.6695" y1="439.0023" y2="439.0023"/></g><!--class Comment--><g id="elem_Comment"><rect codeLine="105" fill="#F1F1F1" height="128.4047" id="Comment" rx="2" ry="2" style="stroke:#181818;stroke-width:0.4000000000000001;" width="173.493" x="204.4" y="339.2"/><ellipse cx="263.4734" cy="352" fill="#ADD1B2" rx="8.8" ry="8.8" style="stroke:#181818;stroke-width:0.8000000000000002;"/><path d="M262.5609,352.6375 L262.5609,354.6375 L266.0234,354.6375 L266.0234,353.9 Q266.0234,353.4125 266.2109,353.2 Q266.4109,352.9875 266.7109,352.9875 Q267.0109,352.9875 267.1984,353.2 Q267.3859,353.4125 267.3859,353.9 L267.3859,356 L260.9859,356 Q260.4859,356 260.2734,355.8125 Q260.0734,355.625 260.0734,355.3125 Q260.0734,355.0125 260.2859,354.825 Q260.4984,354.6375 260.9859,354.6375 L261.1984,354.6375 L261.1984,349.3125 L260.9859,349.3125 Q260.4859,349.3125 260.2734,349.125 Q260.0734,348.9375 260.0734,348.625 Q260.0734,348.325 260.2734,348.1375 Q260.4859,347.95 260.9859,347.95 L267.0859,347.95 L267.0859,350.025 Q267.0859,350.5125 266.8984,350.725 Q266.7234,350.925 266.4109,350.925 Q266.1109,350.925 265.9234,350.725 Q265.7359,350.5125 265.7359,350.025 L265.7359,349.3125 L262.5609,349.3125 L262.5609,351.275 L263.7484,351.275 Q263.7484,350.75 263.8484,350.6 Q264.0609,350.275 264.4359,350.275 Q264.7359,350.275 264.9234,350.4875 Q265.1109,350.6875 265.1109,351.175 L265.1109,352.75 Q265.1109,353.1875 265.0109,353.3375 Q264.7984,353.65 264.4359,353.65 Q264.0609,353.65 263.8484,353.325 Q263.7484,353.175 263.7484,352.6375 L262.5609,352.6375 Z " fill="#000000"/><text fill="#000000" font-family="sans-serif" font-size="11.2" lengthAdjust="spacing" textLength="48.5461" x="279.8734" y="356.6895">Comment</text><line style="stroke:#181818;stroke-width:0.4000000000000001;" x1="205.2" x2="377.093" y1="364.8" y2="364.8"/><rect fill="none" height="4.8" style="stroke:#C82930;stroke-width:0.8000000000000002;" width="4.8" x="210.8" y="374.3004"/><text fill="#000000" font-family="sans-serif" font-size="11.2" lengthAdjust="spacing" textLength="152.693" x="220.4" y="380.1898">@JsonIgnore commentId: uuid</text><rect fill="none" height="4.8" style="stroke:#C82930;stroke-width:0.8000000000000002;" width="4.8" x="210.8" y="389.3012"/><text fill="#000000" font-family="sans-serif" font-size="11.2" lengthAdjust="spacing" textLength="61.6492" x="220.4" y="395.1906">postId: Long</text><rect fill="none" height="4.8" style="stroke:#C82930;stroke-width:0.8000000000000002;" width="4.8" x="210.8" y="404.302"/><text fill="#000000" font-family="sans-serif" font-size="11.2" lengthAdjust="spacing" textLength="51.6578" x="220.4" y="410.1914">user: User</text><rect fill="none" height="4.8" style="stroke:#C82930;stroke-width:0.8000000000000002;" width="4.8" x="210.8" y="419.3027"/><text fill="#000000" font-family="sans-serif" font-size="11.2" lengthAdjust="spacing" textLength="72.2203" x="220.4" y="425.1922">content: String</text><rect fill="none" height="4.8" style="stroke:#C82930;stroke-width:0.8000000000000002;" width="4.8" x="210.8" y="434.3035"/><text fill="#000000" font-family="sans-serif" font-size="11.2" lengthAdjust="spacing" textLength="77.8203" x="220.4" y="440.193">createdAt: Date</text><rect fill="none" height="4.8" style="stroke:#C82930;stroke-width:0.8000000000000002;" width="4.8" x="210.8" y="449.3043"/><text fill="#000000" font-family="sans-serif" font-size="11.2" lengthAdjust="spacing" textLength="94.0188" x="220.4" y="455.1938">isDeleted: Boolean</text><line style="stroke:#181818;stroke-width:0.4000000000000001;" x1="205.2" x2="377.093" y1="461.2047" y2="461.2047"/></g><!--class Scrap--><g id="elem_Scrap"><rect codeLine="117" fill="#F1F1F1" height="98.4031" id="Scrap" rx="2" ry="2" style="stroke:#181818;stroke-width:0.4000000000000001;" width="177.7039" x="406.4" y="354.4"/><ellipse cx="477.223" cy="367.2" fill="#ADD1B2" rx="8.8" ry="8.8" style="stroke:#181818;stroke-width:0.8000000000000002;"/><path d="M476.3105,367.8375 L476.3105,369.8375 L479.773,369.8375 L479.773,369.1 Q479.773,368.6125 479.9605,368.4 Q480.1605,368.1875 480.4605,368.1875 Q480.7605,368.1875 480.948,368.4 Q481.1355,368.6125 481.1355,369.1 L481.1355,371.2 L474.7355,371.2 Q474.2355,371.2 474.023,371.0125 Q473.823,370.825 473.823,370.5125 Q473.823,370.2125 474.0355,370.025 Q474.248,369.8375 474.7355,369.8375 L474.948,369.8375 L474.948,364.5125 L474.7355,364.5125 Q474.2355,364.5125 474.023,364.325 Q473.823,364.1375 473.823,363.825 Q473.823,363.525 474.023,363.3375 Q474.2355,363.15 474.7355,363.15 L480.8355,363.15 L480.8355,365.225 Q480.8355,365.7125 480.648,365.925 Q480.473,366.125 480.1605,366.125 Q479.8605,366.125 479.673,365.925 Q479.4855,365.7125 479.4855,365.225 L479.4855,364.5125 L476.3105,364.5125 L476.3105,366.475 L477.498,366.475 Q477.498,365.95 477.598,365.8 Q477.8105,365.475 478.1855,365.475 Q478.4855,365.475 478.673,365.6875 Q478.8605,365.8875 478.8605,366.375 L478.8605,367.95 Q478.8605,368.3875 478.7605,368.5375 Q478.548,368.85 478.1855,368.85 Q477.8105,368.85 477.598,368.525 Q477.498,368.375 477.498,367.8375 L476.3105,367.8375 Z " fill="#000000"/><text fill="#000000" font-family="sans-serif" font-size="11.2" lengthAdjust="spacing" textLength="29.2578" x="493.623" y="371.8895">Scrap</text><line style="stroke:#181818;stroke-width:0.4000000000000001;" x1="407.2" x2="583.3039" y1="380" y2="380"/><rect fill="none" height="4.8" style="stroke:#C82930;stroke-width:0.8000000000000002;" width="4.8" x="412.8" y="389.5004"/><text fill="#000000" font-family="sans-serif" font-size="11.2" lengthAdjust="spacing" textLength="134.0227" x="422.4" y="395.3898">@JsonIgnore scrapId: uuid</text><rect fill="none" height="4.8" style="stroke:#C82930;stroke-width:0.8000000000000002;" width="4.8" x="412.8" y="404.5012"/><text fill="#000000" font-family="sans-serif" font-size="11.2" lengthAdjust="spacing" textLength="57.9031" x="422.4" y="410.3906">userid: uuid</text><rect fill="none" height="4.8" style="stroke:#C82930;stroke-width:0.8000000000000002;" width="4.8" x="412.8" y="419.502"/><text fill="#000000" font-family="sans-serif" font-size="11.2" lengthAdjust="spacing" textLength="156.9039" x="422.4" y="425.3914">adoptionNotice: AdoptionNotice</text><rect fill="none" height="4.8" style="stroke:#C82930;stroke-width:0.8000000000000002;" width="4.8" x="412.8" y="434.5027"/><text fill="#000000" font-family="sans-serif" font-size="11.2" lengthAdjust="spacing" textLength="77.8203" x="422.4" y="440.3922">createdAt: Date</text><line style="stroke:#181818;stroke-width:0.4000000000000001;" x1="407.2" x2="583.3039" y1="446.4031" y2="446.4031"/></g><!--class VisitRequest--><g id="elem_VisitRequest"><rect codeLine="127" fill="#F1F1F1" height="173.407" id="VisitRequest" rx="2" ry="2" style="stroke:#181818;stroke-width:0.4000000000000001;" width="164.7922" x="612" y="316.8"/><ellipse cx="659.559" cy="329.6" fill="#ADD1B2" rx="8.8" ry="8.8" style="stroke:#181818;stroke-width:0.8000000000000002;"/><path d="M658.6465,330.2375 L658.6465,332.2375 L662.109,332.2375 L662.109,331.5 Q662.109,331.0125 662.2965,330.8 Q662.4965,330.5875 662.7965,330.5875 Q663.0965,330.5875 663.284,330.8 Q663.4715,331.0125 663.4715,331.5 L663.4715,333.6 L657.0715,333.6 Q656.5715,333.6 656.359,333.4125 Q656.159,333.225 656.159,332.9125 Q656.159,332.6125 656.3715,332.425 Q656.584,332.2375 657.0715,332.2375 L657.284,332.2375 L657.284,326.9125 L657.0715,326.9125 Q656.5715,326.9125 656.359,326.725 Q656.159,326.5375 656.159,326.225 Q656.159,325.925 656.359,325.7375 Q656.5715,325.55 657.0715,325.55 L663.1715,325.55 L663.1715,327.625 Q663.1715,328.1125 662.984,328.325 Q662.809,328.525 662.4965,328.525 Q662.1965,328.525 662.009,328.325 Q661.8215,328.1125 661.8215,327.625 L661.8215,326.9125 L658.6465,326.9125 L658.6465,328.875 L659.834,328.875 Q659.834,328.35 659.934,328.2 Q660.1465,327.875 660.5215,327.875 Q660.8215,327.875 661.009,328.0875 Q661.1965,328.2875 661.1965,328.775 L661.1965,330.35 Q661.1965,330.7875 661.0965,330.9375 Q660.884,331.25 660.5215,331.25 Q660.1465,331.25 659.934,330.925 Q659.834,330.775 659.834,330.2375 L658.6465,330.2375 Z " fill="#000000"/><text fill="#000000" font-family="sans-serif" font-size="11.2" lengthAdjust="spacing" textLength="62.8742" x="675.959" y="334.2895">VisitRequest</text><line style="stroke:#181818;stroke-width:0.4000000000000001;" x1="612.8" x2="775.9922" y1="342.4" y2="342.4"/><rect fill="none" height="4.8" style="stroke:#C82930;stroke-width:0.8000000000000002;" width="4.8" x="618.4" y="351.9004"/><text fill="#000000" font-family="sans-serif" font-size="11.2" lengthAdjust="spacing" textLength="143.9922" x="628" y="357.7898">@JsonIgnore requestId: uuid</text><rect fill="none" height="4.8" style="stroke:#C82930;stroke-width:0.8000000000000002;" width="4.8" x="618.4" y="366.9012"/><text fill="#000000" font-family="sans-serif" font-size="11.2" lengthAdjust="spacing" textLength="109.5719" x="628" y="372.7906">phoneNumber : String</text><rect fill="none" height="4.8" style="stroke:#C82930;stroke-width:0.8000000000000002;" width="4.8" x="618.4" y="381.902"/><text fill="#000000" font-family="sans-serif" font-size="11.2" lengthAdjust="spacing" textLength="93.3844" x="628" y="387.7914">creationDate: Date</text><rect fill="none" height="4.8" style="stroke:#C82930;stroke-width:0.8000000000000002;" width="4.8" x="618.4" y="396.9027"/><text fill="#000000" font-family="sans-serif" font-size="11.2" lengthAdjust="spacing" textLength="62.2453" x="628" y="402.7922">email: String</text><rect fill="none" height="4.8" style="stroke:#C82930;stroke-width:0.8000000000000002;" width="4.8" x="618.4" y="411.9035"/><text fill="#000000" font-family="sans-serif" font-size="11.2" lengthAdjust="spacing" textLength="83.4148" x="628" y="417.793">nickname: String</text><rect fill="none" height="4.8" style="stroke:#C82930;stroke-width:0.8000000000000002;" width="4.8" x="618.4" y="426.9043"/><text fill="#000000" font-family="sans-serif" font-size="11.2" lengthAdjust="spacing" textLength="72.8273" x="628" y="432.7938">visitDate: Date</text><rect fill="none" height="4.8" style="stroke:#C82930;stroke-width:0.8000000000000002;" width="4.8" x="618.4" y="441.9051"/><text fill="#000000" font-family="sans-serif" font-size="11.2" lengthAdjust="spacing" textLength="79.6578" x="628" y="447.7945">visitTime: String</text><rect fill="none" height="4.8" style="stroke:#C82930;stroke-width:0.8000000000000002;" width="4.8" x="618.4" y="456.9059"/><text fill="#000000" font-family="sans-serif" font-size="11.2" lengthAdjust="spacing" textLength="75.9555" x="628" y="462.7953">purpose: String</text><rect fill="none" height="4.8" style="stroke:#C82930;stroke-width:0.8000000000000002;" width="4.8" x="618.4" y="471.9066"/><text fill="#000000" font-family="sans-serif" font-size="11.2" lengthAdjust="spacing" textLength="80.9266" x="628" y="477.7961">message: String</text><line style="stroke:#181818;stroke-width:0.4000000000000001;" x1="612.8" x2="775.9922" y1="483.807" y2="483.807"/></g><!--class QnA--><g id="elem_QnA"><rect codeLine="142" fill="#F1F1F1" height="203.4086" id="QnA" rx="2" ry="2" style="stroke:#181818;stroke-width:0.4000000000000001;" width="174.1109" x="5.6" y="538.4"/><ellipse cx="78.05" cy="551.2" fill="#ADD1B2" rx="8.8" ry="8.8" style="stroke:#181818;stroke-width:0.8000000000000002;"/><path d="M77.1375,551.8375 L77.1375,553.8375 L80.6,553.8375 L80.6,553.1 Q80.6,552.6125 80.7875,552.4 Q80.9875,552.1875 81.2875,552.1875 Q81.5875,552.1875 81.775,552.4 Q81.9625,552.6125 81.9625,553.1 L81.9625,555.2 L75.5625,555.2 Q75.0625,555.2 74.85,555.0125 Q74.65,554.825 74.65,554.5125 Q74.65,554.2125 74.8625,554.025 Q75.075,553.8375 75.5625,553.8375 L75.775,553.8375 L75.775,548.5125 L75.5625,548.5125 Q75.0625,548.5125 74.85,548.325 Q74.65,548.1375 74.65,547.825 Q74.65,547.525 74.85,547.3375 Q75.0625,547.15 75.5625,547.15 L81.6625,547.15 L81.6625,549.225 Q81.6625,549.7125 81.475,549.925 Q81.3,550.125 80.9875,550.125 Q80.6875,550.125 80.5,549.925 Q80.3125,549.7125 80.3125,549.225 L80.3125,548.5125 L77.1375,548.5125 L77.1375,550.475 L78.325,550.475 Q78.325,549.95 78.425,549.8 Q78.6375,549.475 79.0125,549.475 Q79.3125,549.475 79.5,549.6875 Q79.6875,549.8875 79.6875,550.375 L79.6875,551.95 Q79.6875,552.3875 79.5875,552.5375 Q79.375,552.85 79.0125,552.85 Q78.6375,552.85 78.425,552.525 Q78.325,552.375 78.325,551.8375 L77.1375,551.8375 Z " fill="#000000"/><text fill="#000000" font-family="sans-serif" font-size="11.2" lengthAdjust="spacing" textLength="22.4109" x="94.45" y="555.8895">QnA</text><line style="stroke:#181818;stroke-width:0.4000000000000001;" x1="6.4" x2="178.9109" y1="564" y2="564"/><rect fill="none" height="4.8" style="stroke:#C82930;stroke-width:0.8000000000000002;" width="4.8" x="12" y="573.5004"/><text fill="#000000" font-family="sans-serif" font-size="11.2" lengthAdjust="spacing" textLength="135.2477" x="21.6" y="579.3898">@JsonIgnore QnAId: UUID</text><rect fill="none" height="4.8" style="stroke:#C82930;stroke-width:0.8000000000000002;" width="4.8" x="12" y="588.5012"/><text fill="#000000" font-family="sans-serif" font-size="11.2" lengthAdjust="spacing" textLength="52.9102" x="21.6" y="594.3906">title: String</text><rect fill="none" height="4.8" style="stroke:#C82930;stroke-width:0.8000000000000002;" width="4.8" x="12" y="603.502"/><text fill="#000000" font-family="sans-serif" font-size="11.2" lengthAdjust="spacing" textLength="72.2203" x="21.6" y="609.3914">content: String</text><rect fill="none" height="4.8" style="stroke:#C82930;stroke-width:0.8000000000000002;" width="4.8" x="12" y="618.5027"/><text fill="#000000" font-family="sans-serif" font-size="11.2" lengthAdjust="spacing" textLength="90.8961" x="21.6" y="624.3922">createdDate: Date</text><rect fill="none" height="4.8" style="stroke:#C82930;stroke-width:0.8000000000000002;" width="4.8" x="12" y="633.5035"/><text fill="#000000" font-family="sans-serif" font-size="11.2" lengthAdjust="spacing" textLength="112.6508" x="21.6" y="639.393">writerNickname: String</text><rect fill="none" height="4.8" style="stroke:#C82930;stroke-width:0.8000000000000002;" width="4.8" x="12" y="648.5043"/><text fill="#000000" font-family="sans-serif" font-size="11.2" lengthAdjust="spacing" textLength="73.4563" x="21.6" y="654.3938">viewCount : int</text><rect fill="none" height="4.8" style="stroke:#C82930;stroke-width:0.8000000000000002;" width="4.8" x="12" y="663.5051"/><text fill="#000000" font-family="sans-serif" font-size="11.2" lengthAdjust="spacing" textLength="153.3109" x="21.6" y="669.3945">@JsonIgnore password: String</text><rect fill="none" height="4.8" style="stroke:#C82930;stroke-width:0.8000000000000002;" width="4.8" x="12" y="678.5059"/><text fill="#000000" font-family="sans-serif" font-size="11.2" lengthAdjust="spacing" textLength="69.0977" x="21.6" y="684.3953">image : String</text><rect fill="none" height="4.8" style="stroke:#C82930;stroke-width:0.8000000000000002;" width="4.8" x="12" y="693.5066"/><text fill="#000000" font-family="sans-serif" font-size="11.2" lengthAdjust="spacing" textLength="49.7984" x="21.6" y="699.3961">file: String</text><rect fill="none" height="4.8" style="stroke:#C82930;stroke-width:0.8000000000000002;" width="4.8" x="12" y="708.5074"/><text fill="#000000" font-family="sans-serif" font-size="11.2" lengthAdjust="spacing" textLength="146.907" x="21.6" y="714.3969">isWaitingForAnswer: Boolean</text><rect fill="none" height="4.8" style="stroke:#C82930;stroke-width:0.8000000000000002;" width="4.8" x="12" y="723.5082"/><text fill="#000000" font-family="sans-serif" font-size="11.2" lengthAdjust="spacing" textLength="94.0188" x="21.6" y="729.3977">isDeleted: Boolean</text><line style="stroke:#181818;stroke-width:0.4000000000000001;" x1="6.4" x2="178.9109" y1="735.4086" y2="735.4086"/></g><!--class QnAAnswer--><g id="elem_QnAAnswer"><rect codeLine="159" fill="#F1F1F1" height="158.4063" id="QnAAnswer" rx="2" ry="2" style="stroke:#181818;stroke-width:0.4000000000000001;" width="133.4508" x="208.4" y="560.8"/><ellipse cx="242.0422" cy="573.6" fill="#ADD1B2" rx="8.8" ry="8.8" style="stroke:#181818;stroke-width:0.8000000000000002;"/><path d="M241.1297,574.2375 L241.1297,576.2375 L244.5922,576.2375 L244.5922,575.5 Q244.5922,575.0125 244.7797,574.8 Q244.9797,574.5875 245.2797,574.5875 Q245.5797,574.5875 245.7672,574.8 Q245.9547,575.0125 245.9547,575.5 L245.9547,577.6 L239.5547,577.6 Q239.0547,577.6 238.8422,577.4125 Q238.6422,577.225 238.6422,576.9125 Q238.6422,576.6125 238.8547,576.425 Q239.0672,576.2375 239.5547,576.2375 L239.7672,576.2375 L239.7672,570.9125 L239.5547,570.9125 Q239.0547,570.9125 238.8422,570.725 Q238.6422,570.5375 238.6422,570.225 Q238.6422,569.925 238.8422,569.7375 Q239.0547,569.55 239.5547,569.55 L245.6547,569.55 L245.6547,571.625 Q245.6547,572.1125 245.4672,572.325 Q245.2922,572.525 244.9797,572.525 Q244.6797,572.525 244.4922,572.325 Q244.3047,572.1125 244.3047,571.625 L244.3047,570.9125 L241.1297,570.9125 L241.1297,572.875 L242.3172,572.875 Q242.3172,572.35 242.4172,572.2 Q242.6297,571.875 243.0047,571.875 Q243.3047,571.875 243.4922,572.0875 Q243.6797,572.2875 243.6797,572.775 L243.6797,574.35 Q243.6797,574.7875 243.5797,574.9375 Q243.3672,575.25 243.0047,575.25 Q242.6297,575.25 242.4172,574.925 Q242.3172,574.775 242.3172,574.2375 L241.1297,574.2375 Z " fill="#000000"/><text fill="#000000" font-family="sans-serif" font-size="11.2" lengthAdjust="spacing" textLength="59.757" x="258.0516" y="578.2895">QnAAnswer</text><line style="stroke:#181818;stroke-width:0.4000000000000001;" x1="209.2" x2="341.0508" y1="586.4" y2="586.4"/><rect fill="none" height="4.8" style="stroke:#C82930;stroke-width:0.8000000000000002;" width="4.8" x="214.8" y="595.9004"/><text fill="#000000" font-family="sans-serif" font-size="11.2" lengthAdjust="spacing" textLength="79.0453" x="224.4" y="601.7898">answerId: UUID</text><rect fill="none" height="4.8" style="stroke:#C82930;stroke-width:0.8000000000000002;" width="4.8" x="214.8" y="610.9012"/><text fill="#000000" font-family="sans-serif" font-size="11.2" lengthAdjust="spacing" textLength="65.3516" x="224.4" y="616.7906">QnAId: UUID</text><rect fill="none" height="4.8" style="stroke:#C82930;stroke-width:0.8000000000000002;" width="4.8" x="214.8" y="625.902"/><text fill="#000000" font-family="sans-serif" font-size="11.2" lengthAdjust="spacing" textLength="110.8133" x="224.4" y="631.7914">answerContent: String</text><rect fill="none" height="4.8" style="stroke:#C82930;stroke-width:0.8000000000000002;" width="4.8" x="214.8" y="640.9027"/><text fill="#000000" font-family="sans-serif" font-size="11.2" lengthAdjust="spacing" textLength="69.0977" x="224.4" y="646.7922">image : String</text><rect fill="none" height="4.8" style="stroke:#C82930;stroke-width:0.8000000000000002;" width="4.8" x="214.8" y="655.9035"/><text fill="#000000" font-family="sans-serif" font-size="11.2" lengthAdjust="spacing" textLength="49.7984" x="224.4" y="661.793">file: String</text><rect fill="none" height="4.8" style="stroke:#C82930;stroke-width:0.8000000000000002;" width="4.8" x="214.8" y="670.9043"/><text fill="#000000" font-family="sans-serif" font-size="11.2" lengthAdjust="spacing" textLength="112.6508" x="224.4" y="676.7938">writerNickname: String</text><rect fill="none" height="4.8" style="stroke:#C82930;stroke-width:0.8000000000000002;" width="4.8" x="214.8" y="685.9051"/><text fill="#000000" font-family="sans-serif" font-size="11.2" lengthAdjust="spacing" textLength="90.8961" x="224.4" y="691.7945">createdDate: Date</text><rect fill="none" height="4.8" style="stroke:#C82930;stroke-width:0.8000000000000002;" width="4.8" x="214.8" y="700.9059"/><text fill="#000000" font-family="sans-serif" font-size="11.2" lengthAdjust="spacing" textLength="94.0188" x="224.4" y="706.7953">isDeleted: Boolean</text><line style="stroke:#181818;stroke-width:0.4000000000000001;" x1="209.2" x2="341.0508" y1="712.8063" y2="712.8063"/></g><!--SRC=[rLRDSjCm4BxdANJBgI_WOJguYO4mmGwn0yEfezfBAcfBGP897OPtHx8KDv7b8dUua8F7tZ_jVj_kAdDqzVnlDaS9RHincy__RWhA4iKLEqZ2w09Bs3F-gDtHBnL7_PRPszoyBUB2lcN5ksGxc_-UpMs01MkQbXBvw8iGfscsInV9XoGjZ6ITvSNj9h5VyJBR5AiilSsBRFl5o6vsNsxpPBqsNzjaasqBVU0ie2Iq4y03385AbN5dhLBLvroXr-y5ewizPHnGgnIh2aLejrijhHuQJEe8vP8JkhSoYXjmH8TxHY5jcplWhZ4f7pmEv-SUi117nYl7v1iZTAdWZP1-dWxYx2kfOTNW_I07eohWfqIEgiP2hjdU4u-pser3n4sDouUQ20agfnkcJ32rohkJQWjOLU0MooGfOLMjbK64zFFLINGz2oJpr9iexJp3UJqv6ZylmoQP7N58FkMeKcPzBQNjxCWxBTP87Jp0xyY919vQtbqgVX0uBbXBDKU4IYl5b3IuBXuFRZ1ipyubbgrmbRe7de90A-ynnOBW0Sqb1_LHnV92IdGNkK4h42KdtQ63nbX23Pwcg8pOjCHJmO64zxiadEhUPSE4z39zK8e1preuoh9tfJr3SyceLEcuqd6Wfw7fWkdhhR7MCaqHF6yDeLEcJ9bx8STQyn_lp_4b-I_MMhzJmw7kNRnmzvjOTtJRaihQw5jCs2prLNVTRv8AghFI9aodocVQRAfNRywbqJaPUyPI5n6PU_q5qpQShC1YyvBZGtYfdRctKA4r7cB8fGXVN5cHSuMD51bOooSYY4HR-Dx2bARhtAoNjpHkT2w7JmECV2IfeWPZvTqDOwjDPJK8q4aBCjmcBLSzvKeR4E9ywWDn_4ZZSFIKiHSq9TU0dIt6oLVAeFgmk-3YRqR0rkokAfT2lJ87rzTdJAJwViDuJCLHp-lbFVRoCTGecfYJa3SkFVwu-tHW7n9Xp1PUw4F1U9QACVwy-Fm1]--></g></svg>